<!-- Created with Inkscape (http://www.inkscape.org/) --><svg xmlns:inkscape="http://www.inkscape.org/namespaces/inkscape" xmlns:sodipodi="http://sodipodi.sourceforge.net/DTD/sodipodi-0.dtd" xmlns="http://www.w3.org/2000/svg" xmlns:svg="http://www.w3.org/2000/svg" width="210mm" height="297mm" viewBox="0 0 210 297" version="1.1" id="svg5" sodipodi:docname="C:\Users\STUART~1\AppData\Local\Temp\ink_ext_XXXXXX.svgTYDCN1">
  <sodipodi:namedview id="namedview7" pagecolor="#ffffff" bordercolor="#666666" borderopacity="1.0" inkscape:showpageshadow="2" inkscape:pageopacity="0.0" inkscape:pagecheckerboard="0" inkscape:deskcolor="#d1d1d1" inkscape:document-units="mm" showgrid="false" inkscape:zoom="0.2102413" inkscape:cx="397.16269" inkscape:cy="561.25984" inkscape:window-width="1920" inkscape:window-height="1057" inkscape:window-x="1" inkscape:window-y="1072" inkscape:window-maximized="1" inkscape:current-layer="layer1"/>
  <defs id="defs2"/>
  <g inkscape:label="Layer 1" inkscape:groupmode="layer" id="layer1">
    <rect x="-3.81" y="-1.27" width="7.62" height="2.54" rx="0.1" ry="0.1" style="stroke:black;fill:none;stroke-width:0.2" id="rect1114"/>
    <rect x="2.22" y="-0.32" width="0.64" height="0.64" rx="0.1" ry="0.1" style="stroke:black;fill:none;stroke-width:0.2" id="rect1116"/>
    <rect x="-0.32" y="-0.32" width="0.64" height="0.64" rx="0.1" ry="0.1" style="stroke:black;fill:none;stroke-width:0.2" id="rect1118"/>
    <rect x="-2.86" y="-0.32" width="0.64" height="0.64" rx="0.1" ry="0.1" style="stroke:black;fill:none;stroke-width:0.2" id="rect1120"/>
    <rect x="-3.81" y="-1.27" width="7.62" height="2.54" rx="0.1" ry="0.1" style="stroke:black;fill:none;stroke-width:0.2" id="rect1142"/>
    <rect x="2.22" y="-0.32" width="0.64" height="0.64" rx="0.1" ry="0.1" style="stroke:black;fill:none;stroke-width:0.2" id="rect1144"/>
    <rect x="-0.32" y="-0.32" width="0.64" height="0.64" rx="0.1" ry="0.1" style="stroke:black;fill:none;stroke-width:0.2" id="rect1146"/>
    <rect x="-2.86" y="-0.32" width="0.64" height="0.64" rx="0.1" ry="0.1" style="stroke:black;fill:none;stroke-width:0.2" id="rect1148"/>
    <rect x="-3.81" y="-1.27" width="7.62" height="2.54" rx="0.1" ry="0.1" style="stroke:black;fill:none;stroke-width:0.2" id="rect1150"/>
    <rect x="2.22" y="-0.32" width="0.64" height="0.64" rx="0.1" ry="0.1" style="stroke:black;fill:none;stroke-width:0.2" id="rect1152"/>
    <rect x="-0.32" y="-0.32" width="0.64" height="0.64" rx="0.1" ry="0.1" style="stroke:black;fill:none;stroke-width:0.2" id="rect1154"/>
    <rect x="-2.86" y="-0.32" width="0.64" height="0.64" rx="0.1" ry="0.1" style="stroke:black;fill:none;stroke-width:0.2" id="rect1156"/>
    <rect x="-3.81" y="-1.27" width="7.62" height="2.54" rx="0.1" ry="0.1" style="stroke:black;fill:none;stroke-width:0.2" id="rect1198"/>
    <rect x="2.22" y="-0.32" width="0.64" height="0.64" rx="0.1" ry="0.1" style="stroke:black;fill:none;stroke-width:0.2" id="rect1200"/>
    <rect x="-0.32" y="-0.32" width="0.64" height="0.64" rx="0.1" ry="0.1" style="stroke:black;fill:none;stroke-width:0.2" id="rect1202"/>
    <rect x="-2.86" y="-0.32" width="0.64" height="0.64" rx="0.1" ry="0.1" style="stroke:black;fill:none;stroke-width:0.2" id="rect1204"/>
    <rect x="-3.81" y="-1.27" width="7.62" height="2.54" rx="0.1" ry="0.1" style="stroke:black;fill:none;stroke-width:0.2" id="rect1250"/>
    <rect x="2.22" y="-0.32" width="0.64" height="0.64" rx="0.1" ry="0.1" style="stroke:black;fill:none;stroke-width:0.2" id="rect1252"/>
    <rect x="-0.32" y="-0.32" width="0.64" height="0.64" rx="0.1" ry="0.1" style="stroke:black;fill:none;stroke-width:0.2" id="rect1254"/>
    <rect x="-2.86" y="-0.32" width="0.64" height="0.64" rx="0.1" ry="0.1" style="stroke:black;fill:none;stroke-width:0.2" id="rect1256"/>
    <rect x="-3.81" y="-1.27" width="7.62" height="2.54" rx="0.1" ry="0.1" style="stroke:black;fill:none;stroke-width:0.2" id="rect1310"/>
    <rect x="2.22" y="-0.32" width="0.64" height="0.64" rx="0.1" ry="0.1" style="stroke:black;fill:none;stroke-width:0.2" id="rect1312"/>
    <rect x="-0.32" y="-0.32" width="0.64" height="0.64" rx="0.1" ry="0.1" style="stroke:black;fill:none;stroke-width:0.2" id="rect1314"/>
    <rect x="-2.86" y="-0.32" width="0.64" height="0.64" rx="0.1" ry="0.1" style="stroke:black;fill:none;stroke-width:0.2" id="rect1316"/>
  <rect x="-3.81" y="-1.27" width="7.62" height="2.54" rx="0.1" ry="0.1" style="stroke:black;fill:none;stroke-width:0.2"/><rect x="2.22" y="-0.32" width="0.64" height="0.64" rx="0.1" ry="0.1" style="stroke:black;fill:none;stroke-width:0.2"/><rect x="-0.32" y="-0.32" width="0.64" height="0.64" rx="0.1" ry="0.1" style="stroke:black;fill:none;stroke-width:0.2"/><rect x="-2.86" y="-0.32" width="0.64" height="0.64" rx="0.1" ry="0.1" style="stroke:black;fill:none;stroke-width:0.2"/></g>
</svg>